<svg width="3990" height="1475" xmlns="http://www.w3.org/2000/svg" xmlns:xlink="http://www.w3.org/1999/xlink" overflow="hidden"><defs><clipPath id="clip0"><rect x="169" y="1504" width="3990" height="1475"/></clipPath><clipPath id="clip1"><rect x="630" y="1953" width="109" height="110"/></clipPath><clipPath id="clip2"><rect x="630" y="1953" width="109" height="110"/></clipPath><clipPath id="clip3"><rect x="630" y="1953" width="109" height="110"/></clipPath><clipPath id="clip4"><rect x="753" y="1953" width="109" height="110"/></clipPath><clipPath id="clip5"><rect x="753" y="1953" width="109" height="110"/></clipPath><clipPath id="clip6"><rect x="753" y="1953" width="109" height="110"/></clipPath></defs><g clip-path="url(#clip0)" transform="translate(-169 -1504)"><path d="M3542 2244.85 3708.12 2244.85 3708.12 2247.15 3542 2247.15ZM3703.54 2232.25 3731.04 2246 3703.54 2259.75Z"/><path d="M3545 2486.85 3711.12 2486.85 3711.12 2489.15 3545 2489.15ZM3706.54 2474.25 3734.04 2488 3706.54 2501.75Z"/><path d="M3542 2718.85 3708.12 2718.85 3708.12 2721.15 3542 2721.15ZM3703.54 2706.25 3731.04 2720 3703.54 2733.75Z"/><path d="M3545 1961.85 3711.12 1961.85 3711.12 1964.15 3545 1964.15ZM3706.54 1949.25 3734.04 1963 3706.54 1976.75Z"/><rect x="675" y="2217" width="619" height="724" stroke="#BF9000" stroke-width="13.75" stroke-miterlimit="8" fill="#FFF2CC"/><text font-family="Calibri,Calibri_MSFontService,sans-serif" font-weight="700" font-size="64" transform="matrix(1 0 0 1 702.289 2294)">Node Transform. (NT)</text><rect x="777" y="2720" width="421" height="119" fill="#FFC000"/><text font-family="Calibri,Calibri_MSFontService,sans-serif" font-weight="700" font-size="55" transform="matrix(1 0 0 1 879.582 2797)">NT Unit 2</text><rect x="715" y="2351" width="528" height="99" fill="#FFD966"/><text font-family="Calibri,Calibri_MSFontService,sans-serif" font-weight="400" font-size="55" transform="matrix(1 0 0 1 745.137 2419)">Load Shared Weights</text><path d="M1632 2304.21C1632 2247.76 1677.76 2202 1734.21 2202L1909.79 2202C1966.24 2202 2012 2247.76 2012 2304.21L2012 2823.79C2012 2880.24 1966.24 2926 1909.79 2926L1734.21 2926C1677.76 2926 1632 2880.24 1632 2823.79Z" stroke="#843C0C" stroke-width="10.3125" stroke-miterlimit="8" fill="#FBE5D6" fill-rule="evenodd"/><path d="M0.000168688-1.14583 408.531-1.08569 408.531 1.20598-0.000168688 1.14583ZM403.95-13.6905 431.448 0.0635171 403.946 13.8095Z" transform="matrix(1 0 0 -1 1198 2582.06)"/><text font-family="Calibri,Calibri_MSFontService,sans-serif" font-weight="400" font-size="64" transform="matrix(1 0 0 1 1698.64 2459)">Re<tspan font-size="64" x="65.9083" y="0">-</tspan><tspan font-size="64" x="85.3876" y="0">batch</tspan><tspan font-size="64" x="93.8438" y="77">&amp;</tspan><tspan font-size="64" x="-4.35413" y="154">multicast </tspan><tspan font-size="64" x="88.1376" y="231">to </tspan><tspan font-size="64" x="-34.9249" y="308">responsible </tspan><tspan font-size="64" x="-0.389526" y="385">MP units</tspan></text><rect x="2303" y="1724" width="1335" height="1217" stroke="#2E75B6" stroke-width="10.3125" stroke-miterlimit="8" fill="#DEEBF7"/><text font-family="Calibri,Calibri_MSFontService,sans-serif" font-weight="700" font-size="64" transform="matrix(1 0 0 1 1688.58 2276)">NT<tspan font-size="64" x="73.9063" y="0">-</tspan><tspan font-size="64" x="93.3854" y="0">to</tspan><tspan font-size="64" x="149.485" y="0">-</tspan><tspan font-size="64" x="168.965" y="0">MP </tspan><tspan font-size="64" x="21.9771" y="77">Adapter</tspan></text><path d="M3732.5 1779.17C3732.5 1744.01 3761.01 1715.5 3796.17 1715.5L4050.83 1715.5C4085.99 1715.5 4114.5 1744.01 4114.5 1779.17L4114.5 2788.83C4114.5 2823.99 4085.99 2852.5 4050.83 2852.5L3796.17 2852.5C3761.01 2852.5 3732.5 2823.99 3732.5 2788.83Z" stroke="#000000" stroke-width="4.58333" stroke-miterlimit="8" fill="#FFFFFF" fill-rule="evenodd"/><text font-family="Calibri,Calibri_MSFontService,sans-serif" font-weight="700" font-size="64" transform="matrix(1 0 0 1 3808.75 1780)">Message <tspan font-size="64" x="10.8167" y="77">Buffer 2</tspan></text><path d="M0 0 381.884 0.000360892" stroke="#000000" stroke-width="6.875" stroke-miterlimit="8" stroke-dasharray="27.5 20.625" fill="none" fill-rule="evenodd" transform="matrix(1 0 0 -1 3731.5 1887.5)"/><path d="M0 0 381.884 0.000360892" stroke="#000000" stroke-width="6.875" stroke-miterlimit="8" stroke-dasharray="27.5 20.625" fill="none" fill-rule="evenodd" transform="matrix(1 0 0 -1 3731.5 2372.5)"/><path d="M0 0 381.884 0.000360892" stroke="#000000" stroke-width="6.875" stroke-miterlimit="8" stroke-dasharray="27.5 20.625" fill="none" fill-rule="evenodd" transform="matrix(1 0 0 -1 3731.5 2129.5)"/><path d="M0 0 381.884 0.000360892" stroke="#000000" stroke-width="6.875" stroke-miterlimit="8" stroke-dasharray="27.5 20.625" fill="none" fill-rule="evenodd" transform="matrix(1 0 0 -1 3731.5 2614.5)"/><text font-family="Calibri,Calibri_MSFontService,sans-serif" font-weight="400" font-size="64" transform="matrix(1 0 0 1 3823.28 2003)">Bank 1<tspan font-size="64" x="-27.0645" y="62">Size: N/4</tspan></text><path d="M228.5 2274.17C228.5 2241.21 255.214 2214.5 288.168 2214.5L526.832 2214.5C559.786 2214.5 586.5 2241.21 586.5 2274.17L586.5 2838.83C586.5 2871.79 559.786 2898.5 526.832 2898.5L288.168 2898.5C255.214 2898.5 228.5 2871.79 228.5 2838.83Z" stroke="#000000" stroke-width="4.58333" stroke-miterlimit="8" fill="#FFFFFF" fill-rule="evenodd"/><text font-family="Arial,Arial_MSFontService,sans-serif" font-weight="700" font-size="64" transform="matrix(1 0 0 1 330.184 2288)">Node <tspan font-size="64" x="-74.7542" y="77">Embeddin</tspan><tspan font-size="64" x="-42.6708" y="154">g Buffer</tspan></text><path d="M0 0 357.008 0.000360892" stroke="#000000" stroke-width="6.875" stroke-miterlimit="8" stroke-dasharray="27.5 20.625" fill="none" fill-rule="evenodd" transform="matrix(1 0 0 -1 229.5 2496.5)"/><path d="M0 0 357.008 0.000360892" stroke="#000000" stroke-width="6.875" stroke-miterlimit="8" stroke-dasharray="27.5 20.625" fill="none" fill-rule="evenodd" transform="matrix(1 0 0 -1 228.5 2691.5)"/><text font-family="Arial,Arial_MSFontService,sans-serif" font-weight="400" font-size="64" transform="matrix(1 0 0 1 313.661 2586)">Bank 1<tspan font-size="64" x="28.3479" y="62">Size: </tspan><tspan font-size="64" x="49.8438" y="123">N/2</tspan><tspan font-size="64" x="-5.78223" y="202">Bank 2</tspan><tspan font-size="64" x="22.5886" y="264">Size: </tspan><tspan font-size="64" x="44.0615" y="325">N/2</tspan></text><path d="M1198 2777.85 1600.44 2777.85 1600.44 2780.15 1198 2780.15ZM1595.86 2765.25 1623.36 2779 1595.86 2792.75Z"/><text font-family="Calibri,Calibri_MSFontService,sans-serif" font-weight="700" font-size="64" transform="matrix(1 0 0 1 1391.11 2367)">Node <tspan font-size="64" x="-78.1917" y="62">Embedding </tspan><tspan font-size="64" x="-29.7916" y="123">Queues</tspan></text><path d="M595 2580.85 753.55 2580.85 753.55 2583.15 595 2583.15ZM748.967 2568.25 776.466 2582 748.966 2595.75Z"/><path d="M595 2777.85 753.575 2777.85 753.575 2780.15 595 2780.15ZM748.992 2765.25 776.492 2779 748.992 2792.75Z"/><rect x="1390" y="2755" width="117" height="75" fill="#A9D18E"/><path d="M1389 2844 1509.77 2844" stroke="#385723" stroke-width="10.3125" stroke-miterlimit="8" fill="#FFFFFF" fill-rule="evenodd"/><path d="M1388 2735 1508.77 2735" stroke="#385723" stroke-width="10.3125" stroke-miterlimit="8" fill="#FFFFFF" fill-rule="evenodd"/><text font-family="Calibri,Calibri_MSFontService,sans-serif" font-weight="700" font-size="64" transform="matrix(1 0 0 1 1426.88 2812)">Q</text><rect x="1392" y="2546" width="116" height="76" fill="#A9D18E"/><path d="M1391 2636 1511.77 2636" stroke="#385723" stroke-width="10.3125" stroke-miterlimit="8" fill="#FFFFFF" fill-rule="evenodd"/><path d="M1390 2526 1510.77 2526" stroke="#385723" stroke-width="10.3125" stroke-miterlimit="8" fill="#FFFFFF" fill-rule="evenodd"/><text font-family="Arial,Arial_MSFontService,sans-serif" font-weight="700" font-size="64" transform="matrix(1 0 0 1 1426.89 2605)">Q</text><rect x="2359" y="1839" width="1237" height="248" fill="#5B9BD5"/><path d="M0-1.14583 74.1598-1.14583 74.1598 600.902 73.0139 599.757 324.208 599.757 324.208 602.048 71.8681 602.048 71.8681 0 73.0139 1.14583 0 1.14583ZM319.625 587.152 347.125 600.902 319.625 614.652Z" transform="matrix(1 0 0 -1 2012 2563.9)"/><path d="M0-1.14583 74.6347-1.14583 74.6347 334.857 73.4889 333.711 325.158 333.711 325.158 336.002 72.343 336.002 72.343 0 73.4889 1.14583 0 1.14583ZM320.575 321.107 348.075 334.857 320.575 348.607Z" transform="matrix(1 0 0 -1 2012 2563.86)"/><path d="M0-1.14583 75.3301-1.14583 75.3301 75.5463 74.1843 74.4005 321.389 74.4005 321.389 76.6922 73.0384 76.6922 73.0384 0 74.1843 1.14583 0 1.14583ZM316.806 61.7963 344.306 75.5463 316.806 89.2963Z" transform="matrix(1 0 0 -1 2012 2563.55)"/><path d="M2012 2562.85 2086.63 2562.85 2086.63 2756.38 2085.49 2755.23 2337.16 2755.23 2337.16 2757.53 2084.34 2757.53 2084.34 2564 2085.49 2565.15 2012 2565.15ZM2332.57 2742.63 2360.07 2756.38 2332.57 2770.13Z"/><rect x="2128" y="1947" width="116" height="74.9999" fill="#A9D18E"/><path d="M2127 2036 2247.77 2036" stroke="#385723" stroke-width="10.3125" stroke-miterlimit="8" fill="#FFFFFF" fill-rule="evenodd"/><path d="M2126 1926 2246.77 1926" stroke="#385723" stroke-width="10.3125" stroke-miterlimit="8" fill="#FFFFFF" fill-rule="evenodd"/><text font-family="Arial,Arial_MSFontService,sans-serif" font-weight="700" font-size="64" transform="matrix(1 0 0 1 2163.09 2006)">Q</text><rect x="2128" y="2203" width="116" height="76" fill="#A9D18E"/><path d="M2127 2292 2247.77 2292" stroke="#385723" stroke-width="10.3125" stroke-miterlimit="8" fill="#FFFFFF" fill-rule="evenodd"/><path d="M2126 2183 2246.77 2183" stroke="#385723" stroke-width="10.3125" stroke-miterlimit="8" fill="#FFFFFF" fill-rule="evenodd"/><text font-family="Arial,Arial_MSFontService,sans-serif" font-weight="700" font-size="64" transform="matrix(1 0 0 1 2163.09 2262)">Q</text><rect x="2128" y="2459" width="116" height="76.0002" fill="#A9D18E"/><path d="M2127 2549 2247.77 2549" stroke="#385723" stroke-width="10.3125" stroke-miterlimit="8" fill="#FFFFFF" fill-rule="evenodd"/><path d="M2126 2439 2246.77 2439" stroke="#385723" stroke-width="10.3125" stroke-miterlimit="8" fill="#FFFFFF" fill-rule="evenodd"/><text font-family="Arial,Arial_MSFontService,sans-serif" font-weight="700" font-size="64" transform="matrix(1 0 0 1 2163.09 2518)">Q</text><rect x="2128" y="2716" width="116" height="75" fill="#A9D18E"/><path d="M2127 2805 2247.77 2805" stroke="#385723" stroke-width="10.3125" stroke-miterlimit="8" fill="#FFFFFF" fill-rule="evenodd"/><path d="M2126 2695 2246.77 2695" stroke="#385723" stroke-width="10.3125" stroke-miterlimit="8" fill="#FFFFFF" fill-rule="evenodd"/><text font-family="Arial,Arial_MSFontService,sans-serif" font-weight="700" font-size="64" transform="matrix(1 0 0 1 2163.09 2775)">Q</text><rect x="2743" y="1925" width="453" height="124" fill="#FFFFFF"/><text font-family="Calibri,Calibri_MSFontService,sans-serif" font-weight="400" font-size="55" transform="matrix(1 0 0 1 2798.87 1967)">Edge embedding</text><path d="M2832.58 1977.09 2892.69 1977.09 2892.69 2039.19 2832.58 2039.19Z" fill="#B686DA" fill-rule="evenodd"/><path d="M2892.69 1977.09 2952.8 1977.09 2952.8 2039.19 2892.69 2039.19Z" fill="#B686DA" fill-rule="evenodd"/><path d="M2952.8 1977.09 3012.91 1977.09 3012.91 2039.19 2952.8 2039.19Z" fill="#B686DA" fill-rule="evenodd"/><path d="M3012.91 1977.09 3073.02 1977.09 3073.02 2039.19 3012.91 2039.19Z" fill="#B686DA" fill-rule="evenodd"/><path d="M3073.02 1977.09 3133.13 1977.09 3133.13 2039.19 3073.02 2039.19Z" fill="#B686DA" fill-rule="evenodd"/><path d="M2892.69 1974.8 2892.69 2041.48" stroke="#FFFFFF" stroke-width="4.58333" stroke-linejoin="round" stroke-miterlimit="10" fill="none" fill-rule="evenodd"/><path d="M2952.8 1974.8 2952.8 2041.48" stroke="#FFFFFF" stroke-width="4.58333" stroke-linejoin="round" stroke-miterlimit="10" fill="none" fill-rule="evenodd"/><path d="M3012.91 1974.8 3012.91 2041.48" stroke="#FFFFFF" stroke-width="4.58333" stroke-linejoin="round" stroke-miterlimit="10" fill="none" fill-rule="evenodd"/><path d="M3073.02 1974.8 3073.02 2041.48" stroke="#FFFFFF" stroke-width="4.58333" stroke-linejoin="round" stroke-miterlimit="10" fill="none" fill-rule="evenodd"/><path d="M2832.58 1974.8 2832.58 2041.48" stroke="#FFFFFF" stroke-width="4.58333" stroke-linejoin="round" stroke-miterlimit="10" fill="none" fill-rule="evenodd"/><path d="M3133.13 1974.8 3133.13 2041.48" stroke="#FFFFFF" stroke-width="4.58333" stroke-linejoin="round" stroke-miterlimit="10" fill="none" fill-rule="evenodd"/><path d="M2830.29 1977.09 3135.42 1977.09" stroke="#FFFFFF" stroke-width="4.58333" stroke-linejoin="round" stroke-miterlimit="10" fill="none" fill-rule="evenodd"/><path d="M2830.29 2039.19 3135.42 2039.19" stroke="#FFFFFF" stroke-width="4.58333" stroke-linejoin="round" stroke-miterlimit="10" fill="none" fill-rule="evenodd"/><path d="M2764.5 2005.5C2764.5 1991.69 2775.47 1980.5 2789 1980.5 2802.53 1980.5 2813.5 1991.69 2813.5 2005.5 2813.5 2019.31 2802.53 2030.5 2789 2030.5 2775.47 2030.5 2764.5 2019.31 2764.5 2005.5Z" stroke="#000000" stroke-width="4.58333" stroke-miterlimit="8" fill="#FFFFFF" fill-rule="evenodd"/><text font-family="Calibri,Calibri_MSFontService,sans-serif" font-weight="700" font-size="64" transform="matrix(1 0 0 1 2772.51 2026)">+</text><path d="M3568 2071 3221 2013.13 3221 1941.87 3568 1884Z" fill="#FFFFFF" fill-rule="evenodd"/><text font-family="Arial,Arial_MSFontService,sans-serif" font-weight="700" font-size="55" transform="matrix(1 0 0 1 3407.58 1956)">Scatt<tspan font-size="55" x="41.25" y="66">er</tspan><tspan fill="#7030A0" font-family="Calibri,Calibri_MSFontService,sans-serif" font-size="64" x="-1057.01" y="-164">Edge Embedding (EE) </tspan><tspan font-family="Calibri,Calibri_MSFontService,sans-serif" font-size="64" x="-484.574" y="-164">+ Message Passing (MP)</tspan><tspan font-family="Calibri,Calibri_MSFontService,sans-serif" font-style="italic" font-weight="400" font-size="64" x="-1965.89" y="35">Multicast to responsible </tspan><tspan font-family="Calibri,Calibri_MSFontService,sans-serif" font-style="italic" font-weight="400" font-size="64" x="-1894.66" y="97">MP units based on </tspan><tspan font-family="Calibri,Calibri_MSFontService,sans-serif" font-style="italic" font-weight="400" font-size="64" x="-1885.7" y="158">destination nodes</tspan><tspan font-family="Calibri,Calibri_MSFontService,sans-serif" font-style="italic" font-weight="400" font-size="64" x="-2863.98" y="-96">Nodes received </tspan><tspan font-family="Calibri,Calibri_MSFontService,sans-serif" font-style="italic" font-weight="400" font-size="64" x="-2863.98" y="-34">messages</tspan></text><g clip-path="url(#clip1)"><g clip-path="url(#clip2)"><g clip-path="url(#clip3)"><path d="M8.99999 22.5 8.99999 85.4999 98.9999 85.4999 98.9999 22.5 8.99999 22.5ZM55.575 61.7625C54.675 62.6625 53.325 62.6625 52.425 61.7625L19.125 29.25 88.9874 29.25 55.575 61.7625ZM37.6875 53.6625 15.75 75.7125 15.75 32.175 37.6875 53.6625ZM40.95 56.8125 49.3875 65.025C50.7375 66.2625 52.425 66.9375 54.1125 66.9375 55.8 66.9375 57.4875 66.2625 58.8375 65.025L67.275 56.8125 89.0999 78.7499 19.0125 78.7499 40.95 56.8125ZM70.3125 53.6625 92.2499 32.2875 92.2499 75.5999 70.3125 53.6625Z" transform="matrix(1 0 0 1 630 1954)"/></g></g></g><path d="M241.5 1806.67C241.5 1782.83 260.827 1763.5 284.668 1763.5L457.332 1763.5C481.173 1763.5 500.5 1782.83 500.5 1806.67L500.5 2105.33C500.5 2129.17 481.173 2148.5 457.332 2148.5L284.668 2148.5C260.827 2148.5 241.5 2129.17 241.5 2105.33Z" stroke="#000000" stroke-width="4.58333" stroke-miterlimit="8" fill="#FFFFFF" fill-rule="evenodd"/><text font-family="Calibri,Calibri_MSFontService,sans-serif" font-weight="700" font-size="64" transform="matrix(1 0 0 1 254.041 1886)">Message <tspan font-size="64" x="10.8167" y="77">Buffer 1</tspan><tspan font-weight="400" font-size="64" x="30.1583" y="182">Size: N</tspan></text><path d="M500 1953.85 985.537 1953.85 985.537 2193.18 983.245 2193.18 983.245 1955 984.391 1956.15 500 1956.15ZM998.141 2188.6 984.391 2216.1 970.641 2188.6Z"/><g clip-path="url(#clip4)"><g clip-path="url(#clip5)"><g clip-path="url(#clip6)"><path d="M8.99999 22.5 8.99999 85.4999 98.9999 85.4999 98.9999 22.5 8.99999 22.5ZM55.575 61.7625C54.675 62.6625 53.325 62.6625 52.425 61.7625L19.125 29.25 88.9874 29.25 55.575 61.7625ZM37.6875 53.6625 15.75 75.7125 15.75 32.175 37.6875 53.6625ZM40.95 56.8125 49.3875 65.025C50.7375 66.2625 52.425 66.9375 54.1125 66.9375 55.8 66.9375 57.4875 66.2625 58.8375 65.025L67.275 56.8125 89.0999 78.7499 19.0125 78.7499 40.95 56.8125ZM70.3125 53.6625 92.2499 32.2875 92.2499 75.5999 70.3125 53.6625Z" transform="matrix(1 0 0 1 753 1954)"/></g></g></g><text fill="#FFFFFF" font-family="Calibri,Calibri_MSFontService,sans-serif" font-weight="700" font-size="64" transform="matrix(1 0 0 1 2795.64 1902)">MP Unit 1</text><rect x="172.5" y="1508.5" width="3983" height="1467" stroke="#000000" stroke-width="6.875" stroke-miterlimit="8" stroke-dasharray="27.5 20.625" fill="none"/><rect x="172" y="1504" width="3985" height="132" fill="#595959"/><text fill="#F8CBAD" font-family="Calibri,Calibri_MSFontService,sans-serif" font-weight="700" font-size="73" transform="matrix(1 0 0 1 350.626 1595)">FlowGNN<tspan fill="#FFFFFF" font-size="73" x="305.227" y="0">Architecture with </tspan><tspan fill="#FFD966" font-size="73" x="852.477" y="0">Multiple</tspan><tspan fill="#FFFFFF" font-size="73" x="1127.48" y="0">Node Transformation, </tspan><tspan fill="#9DC3E6" font-size="73" x="1810.07" y="0">Multiple</tspan><tspan fill="#FFFFFF" font-size="73" x="2085.07" y="0">Message Passing, and </tspan><tspan fill="#CFAFE7" font-size="73" x="2760.54" y="0">Parallelized</tspan><tspan fill="#FFFFFF" font-size="73" x="3123.38" y="0">Edge Embedding</tspan></text><path d="M864.146 2449 864.146 2499.03 861.855 2499.03 861.854 2449ZM876.75 2494.44 863.001 2521.94 849.25 2494.44Z"/><path d="M836.146 2448 836.146 2690.7 833.854 2690.7 833.854 2448ZM848.75 2686.11 835 2713.61 821.25 2686.11Z"/><rect x="777" y="2523" width="421" height="119" fill="#FFC000"/><text font-family="Calibri,Calibri_MSFontService,sans-serif" font-weight="700" font-size="55" transform="matrix(1 0 0 1 879.47 2600)">NT Unit 1<tspan font-weight="400" font-size="64" x="2944.67" y="-369">Bank 2</tspan><tspan font-weight="400" font-size="64" x="2917.61" y="-307">Size: N/4</tspan><tspan font-weight="400" font-size="64" x="2941.01" y="-112">Bank 3</tspan><tspan font-weight="400" font-size="64" x="2913.95" y="-50">Size: N/4</tspan><tspan font-weight="400" font-size="64" x="2941.88" y="117">Bank 4</tspan><tspan font-weight="400" font-size="64" x="2914.81" y="179">Size: N/4</tspan></text><path d="M0 332 57.8728 0 129.127 0 187 332Z" fill="#FFFFFF" fill-rule="evenodd" transform="matrix(-1.83697e-16 -1 -1 1.83697e-16 2718 2073)"/><text font-family="Arial,Arial_MSFontService,sans-serif" font-weight="700" font-size="55" transform="matrix(1 0 0 1 2401.62 1963)">Gathe<tspan font-size="55" x="67.3294" y="66">r</tspan><tspan font-family="Calibri,Calibri_MSFontService,sans-serif" font-weight="400" font-size="55" x="-3.93579" y="47">(source node)</tspan><tspan font-family="Calibri,Calibri_MSFontService,sans-serif" font-weight="400" font-size="55" x="833.017" y="47">(to </tspan><tspan font-family="Calibri,Calibri_MSFontService,sans-serif" font-weight="400" font-size="55" x="909.261" y="47">dest</tspan><tspan font-family="Calibri,Calibri_MSFontService,sans-serif" font-weight="400" font-size="55" x="1004.89" y="47">. node)</tspan></text><rect x="2361" y="2106" width="1237" height="247" fill="#5B9BD5"/><rect x="2745" y="2192" width="453" height="124" fill="#FFFFFF"/><text font-family="Calibri,Calibri_MSFontService,sans-serif" font-weight="400" font-size="55" transform="matrix(1 0 0 1 2800.81 2233)">Edge embedding</text><path d="M2834.52 2243.79 2894.63 2243.79 2894.63 2305.88 2834.52 2305.88Z" fill="#B686DA" fill-rule="evenodd"/><path d="M2894.63 2243.79 2954.74 2243.79 2954.74 2305.88 2894.63 2305.88Z" fill="#B686DA" fill-rule="evenodd"/><path d="M2954.74 2243.79 3014.85 2243.79 3014.85 2305.88 2954.74 2305.88Z" fill="#B686DA" fill-rule="evenodd"/><path d="M3014.85 2243.79 3074.96 2243.79 3074.96 2305.88 3014.85 2305.88Z" fill="#B686DA" fill-rule="evenodd"/><path d="M3074.96 2243.79 3135.07 2243.79 3135.07 2305.88 3074.96 2305.88Z" fill="#B686DA" fill-rule="evenodd"/><path d="M2894.63 2241.5 2894.63 2308.18" stroke="#FFFFFF" stroke-width="4.58333" stroke-linejoin="round" stroke-miterlimit="10" fill="none" fill-rule="evenodd"/><path d="M2954.74 2241.5 2954.74 2308.18" stroke="#FFFFFF" stroke-width="4.58333" stroke-linejoin="round" stroke-miterlimit="10" fill="none" fill-rule="evenodd"/><path d="M3014.85 2241.5 3014.85 2308.18" stroke="#FFFFFF" stroke-width="4.58333" stroke-linejoin="round" stroke-miterlimit="10" fill="none" fill-rule="evenodd"/><path d="M3074.96 2241.5 3074.96 2308.18" stroke="#FFFFFF" stroke-width="4.58333" stroke-linejoin="round" stroke-miterlimit="10" fill="none" fill-rule="evenodd"/><path d="M2834.52 2241.5 2834.52 2308.18" stroke="#FFFFFF" stroke-width="4.58333" stroke-linejoin="round" stroke-miterlimit="10" fill="none" fill-rule="evenodd"/><path d="M3135.07 2241.5 3135.07 2308.18" stroke="#FFFFFF" stroke-width="4.58333" stroke-linejoin="round" stroke-miterlimit="10" fill="none" fill-rule="evenodd"/><path d="M2832.23 2243.79 3137.36 2243.79" stroke="#FFFFFF" stroke-width="4.58333" stroke-linejoin="round" stroke-miterlimit="10" fill="none" fill-rule="evenodd"/><path d="M2832.23 2305.88 3137.36 2305.88" stroke="#FFFFFF" stroke-width="4.58333" stroke-linejoin="round" stroke-miterlimit="10" fill="none" fill-rule="evenodd"/><path d="M2766.5 2272C2766.5 2258.47 2777.47 2247.5 2791 2247.5 2804.53 2247.5 2815.5 2258.47 2815.5 2272 2815.5 2285.53 2804.53 2296.5 2791 2296.5 2777.47 2296.5 2766.5 2285.53 2766.5 2272Z" stroke="#000000" stroke-width="4.58333" stroke-miterlimit="8" fill="#FFFFFF" fill-rule="evenodd"/><text font-family="Calibri,Calibri_MSFontService,sans-serif" font-weight="700" font-size="64" transform="matrix(1 0 0 1 2774.45 2293)">+</text><path d="M3570 2338 3223 2280.13 3223 2208.87 3570 2151Z" fill="#FFFFFF" fill-rule="evenodd"/><text font-family="Arial,Arial_MSFontService,sans-serif" font-weight="700" font-size="55" transform="matrix(1 0 0 1 3409.52 2222)">Scatt<tspan font-size="55" x="41.25" y="66">er</tspan><tspan fill="#FFFFFF" font-family="Calibri,Calibri_MSFontService,sans-serif" font-size="64" x="-611.944" y="-54">MP Unit 1</tspan></text><path d="M0 332 57.8728 0 129.127 0 187 332Z" fill="#FFFFFF" fill-rule="evenodd" transform="matrix(-1.83697e-16 -1 -1 1.83697e-16 2720 2340)"/><text font-family="Arial,Arial_MSFontService,sans-serif" font-weight="700" font-size="55" transform="matrix(1 0 0 1 2403.56 2229)">Gathe<tspan font-size="55" x="67.3291" y="66">r</tspan><tspan font-family="Calibri,Calibri_MSFontService,sans-serif" font-weight="400" font-size="55" x="-3.93604" y="48">(source node)</tspan><tspan font-family="Calibri,Calibri_MSFontService,sans-serif" font-weight="400" font-size="55" x="833.017" y="48">(to </tspan><tspan font-family="Calibri,Calibri_MSFontService,sans-serif" font-weight="400" font-size="55" x="909.261" y="48">dest</tspan><tspan font-family="Calibri,Calibri_MSFontService,sans-serif" font-weight="400" font-size="55" x="1004.89" y="48">. node)</tspan></text><rect x="2358" y="2373" width="1237" height="247" fill="#5B9BD5"/><rect x="2742" y="2459" width="453" height="124" fill="#FFFFFF"/><text font-family="Calibri,Calibri_MSFontService,sans-serif" font-weight="400" font-size="55" transform="matrix(1 0 0 1 2797.82 2500)">Edge embedding</text><path d="M2831.54 2510.53 2891.64 2510.53 2891.64 2572.63 2831.54 2572.63Z" fill="#B686DA" fill-rule="evenodd"/><path d="M2891.64 2510.53 2951.75 2510.53 2951.75 2572.63 2891.64 2572.63Z" fill="#B686DA" fill-rule="evenodd"/><path d="M2951.75 2510.53 3011.86 2510.53 3011.86 2572.63 2951.75 2572.63Z" fill="#B686DA" fill-rule="evenodd"/><path d="M3011.86 2510.53 3071.97 2510.53 3071.97 2572.63 3011.86 2572.63Z" fill="#B686DA" fill-rule="evenodd"/><path d="M3071.97 2510.53 3132.08 2510.53 3132.08 2572.63 3071.97 2572.63Z" fill="#B686DA" fill-rule="evenodd"/><path d="M2891.64 2508.24 2891.64 2574.92" stroke="#FFFFFF" stroke-width="4.58333" stroke-linejoin="round" stroke-miterlimit="10" fill="none" fill-rule="evenodd"/><path d="M2951.75 2508.24 2951.75 2574.92" stroke="#FFFFFF" stroke-width="4.58333" stroke-linejoin="round" stroke-miterlimit="10" fill="none" fill-rule="evenodd"/><path d="M3011.86 2508.24 3011.86 2574.92" stroke="#FFFFFF" stroke-width="4.58333" stroke-linejoin="round" stroke-miterlimit="10" fill="none" fill-rule="evenodd"/><path d="M3071.97 2508.24 3071.97 2574.92" stroke="#FFFFFF" stroke-width="4.58333" stroke-linejoin="round" stroke-miterlimit="10" fill="none" fill-rule="evenodd"/><path d="M2831.54 2508.24 2831.54 2574.92" stroke="#FFFFFF" stroke-width="4.58333" stroke-linejoin="round" stroke-miterlimit="10" fill="none" fill-rule="evenodd"/><path d="M3132.08 2508.24 3132.08 2574.92" stroke="#FFFFFF" stroke-width="4.58333" stroke-linejoin="round" stroke-miterlimit="10" fill="none" fill-rule="evenodd"/><path d="M2829.24 2510.53 3134.37 2510.53" stroke="#FFFFFF" stroke-width="4.58333" stroke-linejoin="round" stroke-miterlimit="10" fill="none" fill-rule="evenodd"/><path d="M2829.24 2572.63 3134.37 2572.63" stroke="#FFFFFF" stroke-width="4.58333" stroke-linejoin="round" stroke-miterlimit="10" fill="none" fill-rule="evenodd"/><path d="M2763.5 2539C2763.5 2525.47 2774.47 2514.5 2788 2514.5 2801.53 2514.5 2812.5 2525.47 2812.5 2539 2812.5 2552.53 2801.53 2563.5 2788 2563.5 2774.47 2563.5 2763.5 2552.53 2763.5 2539Z" stroke="#000000" stroke-width="4.58333" stroke-miterlimit="8" fill="#FFFFFF" fill-rule="evenodd"/><text font-family="Calibri,Calibri_MSFontService,sans-serif" font-weight="700" font-size="64" transform="matrix(1 0 0 1 2771.46 2560)">+</text><path d="M3567 2604 3220 2546.44 3220 2475.56 3567 2418Z" fill="#FFFFFF" fill-rule="evenodd"/><text font-family="Arial,Arial_MSFontService,sans-serif" font-weight="700" font-size="55" transform="matrix(1 0 0 1 3406.53 2489)">Scatt<tspan font-size="55" x="41.25" y="66">er</tspan><tspan fill="#FFFFFF" font-family="Calibri,Calibri_MSFontService,sans-serif" font-size="64" x="-611.944" y="-54">MP Unit 1</tspan></text><path d="M0 332 57.5634 0 128.437 0 186 332Z" fill="#FFFFFF" fill-rule="evenodd" transform="matrix(-1.83697e-16 -1 -1 1.83697e-16 2717 2606)"/><text font-family="Arial,Arial_MSFontService,sans-serif" font-weight="700" font-size="55" transform="matrix(1 0 0 1 2400.57 2496)">Gathe<tspan font-size="55" x="67.3291" y="66">r</tspan><tspan font-family="Calibri,Calibri_MSFontService,sans-serif" font-weight="400" font-size="55" x="-3.93604" y="48">(source node)</tspan><tspan font-family="Calibri,Calibri_MSFontService,sans-serif" font-weight="400" font-size="55" x="833.017" y="48">(to </tspan><tspan font-family="Calibri,Calibri_MSFontService,sans-serif" font-weight="400" font-size="55" x="909.261" y="48">dest</tspan><tspan font-family="Calibri,Calibri_MSFontService,sans-serif" font-weight="400" font-size="55" x="1004.89" y="48">. node)</tspan></text><rect x="2361" y="2640" width="1237" height="247" fill="#5B9BD5"/><rect x="2745" y="2726" width="453" height="123" fill="#FFFFFF"/><text font-family="Calibri,Calibri_MSFontService,sans-serif" font-weight="400" font-size="55" transform="matrix(1 0 0 1 2800.81 2767)">Edge embedding</text><path d="M2834.52 2777.26 2894.63 2777.26 2894.63 2839.35 2834.52 2839.35Z" fill="#B686DA" fill-rule="evenodd"/><path d="M2894.63 2777.26 2954.74 2777.26 2954.74 2839.35 2894.63 2839.35Z" fill="#B686DA" fill-rule="evenodd"/><path d="M2954.74 2777.26 3014.85 2777.26 3014.85 2839.35 2954.74 2839.35Z" fill="#B686DA" fill-rule="evenodd"/><path d="M3014.85 2777.26 3074.96 2777.26 3074.96 2839.35 3014.85 2839.35Z" fill="#B686DA" fill-rule="evenodd"/><path d="M3074.96 2777.26 3135.07 2777.26 3135.07 2839.35 3074.96 2839.35Z" fill="#B686DA" fill-rule="evenodd"/><path d="M2894.63 2774.97 2894.63 2841.64" stroke="#FFFFFF" stroke-width="4.58333" stroke-linejoin="round" stroke-miterlimit="10" fill="none" fill-rule="evenodd"/><path d="M2954.74 2774.97 2954.74 2841.64" stroke="#FFFFFF" stroke-width="4.58333" stroke-linejoin="round" stroke-miterlimit="10" fill="none" fill-rule="evenodd"/><path d="M3014.85 2774.97 3014.85 2841.64" stroke="#FFFFFF" stroke-width="4.58333" stroke-linejoin="round" stroke-miterlimit="10" fill="none" fill-rule="evenodd"/><path d="M3074.96 2774.97 3074.96 2841.64" stroke="#FFFFFF" stroke-width="4.58333" stroke-linejoin="round" stroke-miterlimit="10" fill="none" fill-rule="evenodd"/><path d="M2834.52 2774.97 2834.52 2841.64" stroke="#FFFFFF" stroke-width="4.58333" stroke-linejoin="round" stroke-miterlimit="10" fill="none" fill-rule="evenodd"/><path d="M3135.07 2774.97 3135.07 2841.64" stroke="#FFFFFF" stroke-width="4.58333" stroke-linejoin="round" stroke-miterlimit="10" fill="none" fill-rule="evenodd"/><path d="M2832.23 2777.26 3137.36 2777.26" stroke="#FFFFFF" stroke-width="4.58333" stroke-linejoin="round" stroke-miterlimit="10" fill="none" fill-rule="evenodd"/><path d="M2832.23 2839.35 3137.36 2839.35" stroke="#FFFFFF" stroke-width="4.58333" stroke-linejoin="round" stroke-miterlimit="10" fill="none" fill-rule="evenodd"/><path d="M2766.5 2805.5C2766.5 2791.69 2777.47 2780.5 2791 2780.5 2804.53 2780.5 2815.5 2791.69 2815.5 2805.5 2815.5 2819.31 2804.53 2830.5 2791 2830.5 2777.47 2830.5 2766.5 2819.31 2766.5 2805.5Z" stroke="#000000" stroke-width="4.58333" stroke-miterlimit="8" fill="#FFFFFF" fill-rule="evenodd"/><text font-family="Calibri,Calibri_MSFontService,sans-serif" font-weight="700" font-size="64" transform="matrix(1 0 0 1 2774.45 2826)">+</text><path d="M3570 2871 3223 2813.13 3223 2741.87 3570 2684Z" fill="#FFFFFF" fill-rule="evenodd"/><text font-family="Arial,Arial_MSFontService,sans-serif" font-weight="700" font-size="55" transform="matrix(1 0 0 1 3409.52 2756)">Scatt<tspan font-size="55" x="41.25" y="66">er</tspan><tspan fill="#FFFFFF" font-family="Calibri,Calibri_MSFontService,sans-serif" font-size="64" x="-611.944" y="-54">MP Unit 1</tspan></text><path d="M0 332 57.8728 0 129.127 0 187 332Z" fill="#FFFFFF" fill-rule="evenodd" transform="matrix(-1.83697e-16 -1 -1 1.83697e-16 2720 2873)"/><text font-family="Arial,Arial_MSFontService,sans-serif" font-weight="700" font-size="55" transform="matrix(1 0 0 1 2403.56 2763)">Gathe<tspan font-size="55" x="67.3291" y="66">r</tspan><tspan font-family="Calibri,Calibri_MSFontService,sans-serif" font-weight="400" font-size="55" x="-3.93604" y="47">(source node)</tspan><tspan font-family="Calibri,Calibri_MSFontService,sans-serif" font-weight="400" font-size="55" x="833.017" y="47">(to </tspan><tspan font-family="Calibri,Calibri_MSFontService,sans-serif" font-weight="400" font-size="55" x="909.261" y="47">dest</tspan><tspan font-family="Calibri,Calibri_MSFontService,sans-serif" font-weight="400" font-size="55" x="1004.89" y="47">. node)</tspan></text></g></svg>